ffmpeg version 3.4.8-0ubuntu0.2 Copyright (c) 2000-2020 the FFmpeg developers
  built with gcc 7 (Ubuntu 7.5.0-3ubuntu1~18.04)
  configuration: --prefix=/usr --extra-version=0ubuntu0.2 --toolchain=hardened --libdir=/usr/lib/x86_64-linux-gnu --incdir=/usr/include/x86_64-linux-gnu --enable-gpl --disable-stripping --enable-avresample --enable-avisynth --enable-gnutls --enable-ladspa --enable-libass --enable-libbluray --enable-libbs2b --enable-libcaca --enable-libcdio --enable-libflite --enable-libfontconfig --enable-libfreetype --enable-libfribidi --enable-libgme --enable-libgsm --enable-libmp3lame --enable-libmysofa --enable-libopenjpeg --enable-libopenmpt --enable-libopus --enable-libpulse --enable-librubberband --enable-librsvg --enable-libshine --enable-libsnappy --enable-libsoxr --enable-libspeex --enable-libssh --enable-libtheora --enable-libtwolame --enable-libvorbis --enable-libvpx --enable-libwavpack --enable-libwebp --enable-libx265 --enable-libxml2 --enable-libxvid --enable-libzmq --enable-libzvbi --enable-omx --enable-openal --enable-opengl --enable-sdl2 --enable-libdc1394 --enable-libdrm --enable-libiec61883 --enable-chromaprint --enable-frei0r --enable-libopencv --enable-libx264 --enable-shared
  libavutil      55. 78.100 / 55. 78.100
  libavcodec     57.107.100 / 57.107.100
  libavformat    57. 83.100 / 57. 83.100
  libavdevice    57. 10.100 / 57. 10.100
  libavfilter     6.107.100 /  6.107.100
  libavresample   3.  7.  0 /  3.  7.  0
  libswscale      4.  8.100 /  4.  8.100
  libswresample   2.  9.100 /  2.  9.100
  libpostproc    54.  7.100 / 54.  7.100
[rawvideo @ 0x564554220a20] Estimating duration from bitrate, this may be inaccurate
Input #0, rawvideo, from '../../SVC-Encoder-20220109T061506Z-001/SVC-Encoder/Dataset/RollerCoaster/ERP_8x8/tile_yuv/Tile_49_480x240.yuv':
  Duration: 00:00:10.00, start: 0.000000, bitrate: 41472 kb/s
    Stream #0:0: Video: rawvideo (I420 / 0x30323449), yuv420p, 480x240, 41472 kb/s, 30 tbr, 30 tbn, 30 tbc
Stream mapping:
  Stream #0:0 -> #0:0 (rawvideo (native) -> h264 (libx264))
Press [q] to stop, [?] for help
[libx264 @ 0x56455422dc60] using cpu capabilities: MMX2 SSE2Fast LZCNT SSSE3 SSE4.2 AVX
[libx264 @ 0x56455422dc60] profile High, level 2.1
Output #0, rawvideo, to 'RollerCoaster_Tile_49_480x240_x264_QP_36.h264':
  Metadata:
    encoder         : Lavf57.83.100
    Stream #0:0: Video: h264 (libx264), yuv420p, 480x240, q=-1--1, 30 fps, 30 tbn, 30 tbc
    Metadata:
      encoder         : Lavc57.107.100 libx264
    Side data:
      cpb: bitrate max/min/avg: 0/0/0 buffer size: 0 vbv_delay: -1
frame=  293 fps=0.0 q=42.0 PSNR=Y:nan U:nan V:nan *:nan size=      36kB time=00:00:08.33 bitrate=  35.3kbits/s speed=16.2x    frame=  300 fps=0.0 q=42.0 LPSNR=Y:inf U:inf V:inf *:inf size=      40kB time=00:00:09.93 bitrate=  33.0kbits/s speed=17.6x    
video:40kB audio:0kB subtitle:0kB other streams:0kB global headers:0kB muxing overhead: 0.000000%
[libx264 @ 0x56455422dc60] frame I:2     Avg QP:32.78  size:  5097  PSNR Mean Y:38.00 U:43.52 V:41.32 Avg:39.01 Global:38.93
[libx264 @ 0x56455422dc60] frame P:76    Avg QP:34.34  size:   210  PSNR Mean Y:37.30 U:43.44 V:41.53 Avg:38.43 Global:38.42
[libx264 @ 0x56455422dc60] frame B:222   Avg QP:41.46  size:    67  PSNR Mean Y:36.94 U:43.38 V:41.40 Avg:38.11 Global:38.09
[libx264 @ 0x56455422dc60] consecutive B-frames:  1.0%  0.7%  1.0% 97.3%
[libx264 @ 0x56455422dc60] mb I  I16..4:  9.3% 78.1% 12.6%
[libx264 @ 0x56455422dc60] mb P  I16..4:  0.2%  0.2%  0.0%  P16..4: 24.1%  0.7%  0.1%  0.0%  0.0%    skip:74.7%
[libx264 @ 0x56455422dc60] mb B  I16..4:  0.0%  0.0%  0.0%  B16..8: 12.8%  0.0%  0.0%  direct: 0.0%  skip:87.2%  L0:42.5% L1:57.5% BI: 0.0%
[libx264 @ 0x56455422dc60] 8x8 transform intra:75.5% inter:95.1%
[libx264 @ 0x56455422dc60] coded y,uvDC,uvAC intra: 47.1% 53.7% 25.2% inter: 0.4% 0.6% 0.0%
[libx264 @ 0x56455422dc60] i16 v,h,dc,p: 34% 38% 17% 12%
[libx264 @ 0x56455422dc60] i8 v,h,dc,ddl,ddr,vr,hd,vl,hu: 16% 18% 33%  4%  4%  2% 11%  4%  9%
[libx264 @ 0x56455422dc60] i4 v,h,dc,ddl,ddr,vr,hd,vl,hu: 10% 30% 16%  8%  6%  1% 16%  3% 10%
[libx264 @ 0x56455422dc60] i8c dc,h,v,p: 56% 27%  7%  9%
[libx264 @ 0x56455422dc60] Weighted P-Frames: Y:1.3% UV:0.0%
[libx264 @ 0x56455422dc60] ref P L0: 54.0% 22.9% 16.7%  6.3%  0.0%
[libx264 @ 0x56455422dc60] ref B L0: 63.2% 31.4%  5.4%
[libx264 @ 0x56455422dc60] ref B L1: 70.4% 29.6%
[libx264 @ 0x56455422dc60] PSNR Mean Y:37.038 U:43.396 V:41.435 Avg:38.195 Global:38.179 kb/s:32.80
